<svg width="14" height="16" viewBox="0 0 14 16" fill="none" xmlns="http://www.w3.org/2000/svg">
<path d="M4.7093 1.63C4.7093 1.41333 4.7313 1.28333 5.10264 1.28333H10.0793C10.946 1.28333 11.426 2.02333 11.7726 3.412L12.0526 4.52267H12.8993C13.0526 1.37067 13.186 0 13.186 0C13.186 0 11.0553 0.24 9.79264 0.24H3.42664L0.0173035 0.130667V1.044L1.1673 1.26133C1.97397 1.42133 2.1673 1.592 2.23397 2.332C2.23397 2.332 2.3073 4.512 2.3073 8.092C2.3073 11.682 2.2473 13.832 2.2473 13.832C2.2473 14.4807 1.9873 14.7207 1.1873 14.8807L0.0393035 15.1007V16L3.4593 15.89H9.1593C10.4493 15.89 13.4193 16 13.4193 16C13.4893 15.22 13.9193 11.68 13.9893 11.2907H13.1893L12.3333 13.2307C11.6633 14.7507 10.6826 14.8607 9.5933 14.8607H6.32264C5.23597 14.8607 4.71264 14.434 4.71264 13.494V8.53333C4.71264 8.53333 7.12597 8.53333 7.90597 8.59733C8.51397 8.64 8.8813 8.814 9.0793 9.66267L9.3393 10.7927H10.2793L10.2193 7.94067L10.3473 5.07067H9.41997L9.11997 6.33067C8.9313 7.16 8.79997 7.31067 7.95064 7.39733C6.83997 7.51067 4.74064 7.49067 4.74064 7.49067V1.63333H4.7073L4.7093 1.63Z" fill="#333333"/>
</svg>
